<mxfile host="app.diagrams.net" modified="2024-03-21T11:01:53.330Z" agent="Mozilla/5.0 (Windows NT 10.0; Win64; x64) AppleWebKit/537.36 (KHTML, like Gecko) Chrome/122.0.0.0 Safari/537.36" version="24.0.5" etag="e1TOMBy8Ka6hWzBDCgjk" type="github">
  <diagram name="Page-1" id="k-KcQUlKfh_SxBSrbfVw">
    <mxGraphModel>
      <root>
        <mxCell id="0" />
        <mxCell id="1" parent="0" />
      </root>
    </mxGraphModel>
  </diagram>
</mxfile>
